<svg xmlns="http://www.w3.org/2000/svg" viewBox="0 0 24 24" width="24" height="24"><path fill="#EA4335" d="M5.266 9.765A7.077 7.077 0 0 1 12 4.909c1.69 0 3.218.6 4.418 1.582L19.91 3C17.782 1.145 15.065 0 12 0 7.384 0 3.323 2.669 1.367 6.511l3.899 3.254Z"/><path fill="#34A853" d="M16.04 18.013c-1.09.703-2.474 1.078-4.04 1.078a7.077 7.077 0 0 1-6.723-4.823l-3.916 3.004C3.352 21.333 7.403 24 12 24c2.767 0 5.298-1.154 6.961-3.009l-2.92-2.978Z"/><path fill="#4A90E2" d="M12 4.817a7.773 7.773 0 0 1 4.445 1.483L20 2.9C17.842 1.066 15.093 0 12 0v4.817Z" opacity="0"/><path fill="#FBBC05" d="M12 4.817V0c-3.155 0-6.04 1.107-8.293 2.966l3.633 3.033A7.774 7.774 0 0 1 12 4.817Z" opacity="0"/><path fill="#4285F4" d="M23.49 12.275c0-.849-.076-1.669-.218-2.465H12v4.947h6.459c-.276 1.492-1.115 2.756-2.381 3.604l3.755 2.912c2.197-2.022 3.657-4.996 3.657-8.998Z"/><path fill="#FBBC05" d="M5.266 9.765l-3.9-3.254C.527 8.555 0 10.732 0 13l5.266-3.235Z" opacity="0"/><path fill="#EA4335" d="M1.367 6.511 5.266 9.765A7.077 7.077 0 0 1 12 4.909V0C7.384 0 3.323 2.669 1.367 6.511Z" opacity="0"/></svg>