<svg xmlns="http://www.w3.org/2000/svg" viewBox="0 0 24 24" width="24" height="24"><path fill="#07C160" d="M8.696 15.86c-.464 0-.91-.04-1.334-.114l-2.915 1.55a.35.35 0 0 1-.508-.386l.635-2.52a6.43 6.43 0 0 1-2.52-4.943C2.054 5.253 5.483 2.06 9.713 2.06c4.23 0 7.66 3.193 7.66 7.133 0 3.94-3.43 7.133-7.66 7.133-1.017-.466-1.017-.466-1.017-.466Zm9.467 5.767 2.373 1.26a.284.284 0 0 0 .413-.313l-.516-2.046c1.156-1.077 1.867-2.484 1.867-4.008 0-3.32-3.15-6.012-7.034-6.012-.667 0-1.314.08-1.927.23-2.943 1.054-4.88 3.518-4.88 6.332 0 4.02 4.343 7.28 9.704 7.28.377 0 .74-.025 1.085-.072-.376.43-.376.43 1.085 1.35Z"/></svg>